<svg width="1728" height="642" viewBox="0 0 1728 642" fill="none" xmlns="http://www.w3.org/2000/svg">
<path d="M-57.0001 908.489C-8.75974 856.043 186.718 579.347 537.964 579.347C977.021 579.347 1222.42 1224.07 1884.5 691.472" stroke="url(#paint0_linear_7_114)" stroke-opacity="0.07" stroke-width="0.987317"/>
<path d="M-57 330.141C-8.75968 277.696 186.719 1 537.964 1C977.021 1 1222.42 645.719 1884.5 113.125" stroke="url(#paint1_linear_7_114)" stroke-opacity="0.07" stroke-width="0.987317"/>
<path d="M-57.0001 889.833C-8.75974 837.387 186.718 560.691 537.964 560.691C977.021 560.691 1222.42 1205.41 1884.5 672.816" stroke="url(#paint2_linear_7_114)" stroke-opacity="0.07" stroke-width="0.987317"/>
<path d="M-57.0001 871.176C-8.75974 818.731 186.718 542.035 537.964 542.035C977.021 542.035 1222.42 1186.75 1884.5 654.16" stroke="url(#paint3_linear_7_114)" stroke-opacity="0.07" stroke-width="0.987317"/>
<path d="M-57.0001 852.519C-8.75974 800.074 186.718 523.378 537.964 523.378C977.021 523.378 1222.42 1168.1 1884.5 635.503" stroke="url(#paint4_linear_7_114)" stroke-opacity="0.07" stroke-width="0.987317"/>
<path d="M-57.0001 833.863C-8.75974 781.417 186.718 504.722 537.964 504.722C977.021 504.722 1222.42 1149.44 1884.5 616.847" stroke="url(#paint5_linear_7_114)" stroke-opacity="0.07" stroke-width="0.987317"/>
<path d="M-57.0001 815.207C-8.75974 762.761 186.718 486.066 537.964 486.066C977.021 486.066 1222.42 1130.78 1884.5 598.191" stroke="url(#paint6_linear_7_114)" stroke-opacity="0.07" stroke-width="0.987317"/>
<path d="M-57.0001 796.55C-8.75974 744.105 186.718 467.409 537.964 467.409C977.021 467.409 1222.42 1112.13 1884.5 579.534" stroke="url(#paint7_linear_7_114)" stroke-opacity="0.07" stroke-width="0.987317"/>
<path d="M-57.0001 777.895C-8.75974 725.449 186.718 448.753 537.964 448.753C977.021 448.753 1222.42 1093.47 1884.5 560.878" stroke="url(#paint8_linear_7_114)" stroke-opacity="0.07" stroke-width="0.987317"/>
<path d="M-57.0001 759.238C-8.75974 706.792 186.718 430.097 537.964 430.097C977.021 430.097 1222.42 1074.82 1884.5 542.222" stroke="url(#paint9_linear_7_114)" stroke-opacity="0.07" stroke-width="0.987317"/>
<path d="M-57.0001 740.582C-8.75974 688.136 186.718 411.44 537.964 411.44C977.021 411.44 1222.42 1056.16 1884.5 523.565" stroke="url(#paint10_linear_7_114)" stroke-opacity="0.07" stroke-width="0.987317"/>
<path d="M-57.0001 721.926C-8.75974 669.48 186.718 392.784 537.964 392.784C977.021 392.784 1222.42 1037.5 1884.5 504.909" stroke="url(#paint11_linear_7_114)" stroke-opacity="0.07" stroke-width="0.987317"/>
<path d="M-57.0001 703.269C-8.75974 650.823 186.718 374.128 537.964 374.128C977.021 374.128 1222.42 1018.85 1884.5 486.253" stroke="url(#paint12_linear_7_114)" stroke-opacity="0.07" stroke-width="0.987317"/>
<path d="M-57.0001 684.612C-8.75974 632.167 186.718 355.471 537.964 355.471C977.021 355.471 1222.42 1000.19 1884.5 467.596" stroke="url(#paint13_linear_7_114)" stroke-opacity="0.07" stroke-width="0.987317"/>
<path d="M-57.0001 665.956C-8.75974 613.51 186.718 336.815 537.964 336.815C977.021 336.815 1222.42 981.534 1884.5 448.94" stroke="url(#paint14_linear_7_114)" stroke-opacity="0.07" stroke-width="0.987317"/>
<path d="M-57.0001 647.3C-8.75974 594.854 186.718 318.159 537.964 318.159C977.021 318.159 1222.42 962.878 1884.5 430.284" stroke="url(#paint15_linear_7_114)" stroke-opacity="0.07" stroke-width="0.987317"/>
<path d="M-57.0001 628.644C-8.75974 576.198 186.718 299.502 537.964 299.502C977.021 299.502 1222.42 944.221 1884.5 411.627" stroke="url(#paint16_linear_7_114)" stroke-opacity="0.07" stroke-width="0.987317"/>
<path d="M-57.0001 609.987C-8.75974 557.541 186.718 280.845 537.964 280.845C977.021 280.845 1222.42 925.564 1884.5 392.97" stroke="url(#paint17_linear_7_114)" stroke-opacity="0.07" stroke-width="0.987317"/>
<path d="M-57.0001 591.33C-8.75974 538.885 186.718 262.189 537.964 262.189C977.021 262.189 1222.42 906.908 1884.5 374.314" stroke="url(#paint18_linear_7_114)" stroke-opacity="0.07" stroke-width="0.987317"/>
<path d="M-57.0001 572.674C-8.75974 520.228 186.718 243.533 537.964 243.533C977.021 243.533 1222.42 888.252 1884.5 355.658" stroke="url(#paint19_linear_7_114)" stroke-opacity="0.07" stroke-width="0.987317"/>
<path d="M-57.0001 554.018C-8.75974 501.572 186.718 224.876 537.964 224.876C977.021 224.876 1222.42 869.595 1884.5 337.002" stroke="url(#paint20_linear_7_114)" stroke-opacity="0.07" stroke-width="0.987317"/>
<path d="M-57.0001 535.361C-8.75974 482.916 186.718 206.22 537.964 206.22C977.021 206.22 1222.42 850.939 1884.5 318.345" stroke="url(#paint21_linear_7_114)" stroke-opacity="0.07" stroke-width="0.987317"/>
<path d="M-57.0001 516.704C-8.75974 464.258 186.718 187.563 537.964 187.563C977.021 187.563 1222.42 832.282 1884.5 299.688" stroke="url(#paint22_linear_7_114)" stroke-opacity="0.07" stroke-width="0.987317"/>
<path d="M-57.0001 498.049C-8.75974 445.603 186.718 168.907 537.964 168.907C977.021 168.907 1222.42 813.626 1884.5 281.032" stroke="url(#paint23_linear_7_114)" stroke-opacity="0.07" stroke-width="0.987317"/>
<path d="M-57.0001 479.392C-8.75974 426.947 186.718 150.251 537.964 150.251C977.021 150.251 1222.42 794.97 1884.5 262.376" stroke="url(#paint24_linear_7_114)" stroke-opacity="0.07" stroke-width="0.987317"/>
<path d="M-57.0001 460.735C-8.75974 408.29 186.718 131.594 537.964 131.594C977.021 131.594 1222.42 776.313 1884.5 243.719" stroke="url(#paint25_linear_7_114)" stroke-opacity="0.07" stroke-width="0.987317"/>
<path d="M-57.0001 442.079C-8.75974 389.634 186.718 112.938 537.964 112.938C977.021 112.938 1222.42 757.657 1884.5 225.063" stroke="url(#paint26_linear_7_114)" stroke-opacity="0.07" stroke-width="0.987317"/>
<path d="M-57.0001 423.423C-8.75974 370.978 186.718 94.282 537.964 94.282C977.021 94.282 1222.42 739.001 1884.5 206.407" stroke="url(#paint27_linear_7_114)" stroke-opacity="0.07" stroke-width="0.987317"/>
<path d="M-57.0001 404.766C-8.75974 352.321 186.718 75.6251 537.964 75.6251C977.021 75.6251 1222.42 720.344 1884.5 187.75" stroke="url(#paint28_linear_7_114)" stroke-opacity="0.07" stroke-width="0.987317"/>
<path d="M-57.0001 386.11C-8.75974 333.664 186.718 56.9687 537.964 56.9687C977.021 56.9687 1222.42 701.688 1884.5 169.094" stroke="url(#paint29_linear_7_114)" stroke-opacity="0.07" stroke-width="0.987317"/>
<path d="M-57.0001 367.453C-8.75974 315.008 186.718 38.3123 537.964 38.3123C977.021 38.3123 1222.42 683.031 1884.5 150.437" stroke="url(#paint30_linear_7_114)" stroke-opacity="0.07" stroke-width="0.987317"/>
<path d="M-57.0001 348.798C-8.75974 296.352 186.718 19.6563 537.964 19.6563C977.021 19.6563 1222.42 664.375 1884.5 131.781" stroke="url(#paint31_linear_7_114)" stroke-opacity="0.07" stroke-width="0.987317"/>
<defs>
<linearGradient id="paint0_linear_7_114" x1="-57.0001" y1="786.849" x2="1884.5" y2="786.849" gradientUnits="userSpaceOnUse">
<stop stop-color="#015AA1"/>
<stop offset="0.488163" stop-color="#33428F"/>
<stop offset="1" stop-color="#5A3281"/>
</linearGradient>
<linearGradient id="paint1_linear_7_114" x1="-57" y1="208.502" x2="1884.5" y2="208.502" gradientUnits="userSpaceOnUse">
<stop stop-color="#015AA1"/>
<stop offset="0.488163" stop-color="#33428F"/>
<stop offset="1" stop-color="#5A3281"/>
</linearGradient>
<linearGradient id="paint2_linear_7_114" x1="-57.0001" y1="768.193" x2="1884.5" y2="768.193" gradientUnits="userSpaceOnUse">
<stop stop-color="#015AA1"/>
<stop offset="0.488163" stop-color="#33428F"/>
<stop offset="1" stop-color="#5A3281"/>
</linearGradient>
<linearGradient id="paint3_linear_7_114" x1="-57.0001" y1="749.537" x2="1884.5" y2="749.537" gradientUnits="userSpaceOnUse">
<stop stop-color="#015AA1"/>
<stop offset="0.488163" stop-color="#33428F"/>
<stop offset="1" stop-color="#5A3281"/>
</linearGradient>
<linearGradient id="paint4_linear_7_114" x1="-57.0001" y1="730.88" x2="1884.5" y2="730.88" gradientUnits="userSpaceOnUse">
<stop stop-color="#015AA1"/>
<stop offset="0.488163" stop-color="#33428F"/>
<stop offset="1" stop-color="#5A3281"/>
</linearGradient>
<linearGradient id="paint5_linear_7_114" x1="-57.0001" y1="712.224" x2="1884.5" y2="712.224" gradientUnits="userSpaceOnUse">
<stop stop-color="#015AA1"/>
<stop offset="0.488163" stop-color="#33428F"/>
<stop offset="1" stop-color="#5A3281"/>
</linearGradient>
<linearGradient id="paint6_linear_7_114" x1="-57.0001" y1="693.568" x2="1884.5" y2="693.568" gradientUnits="userSpaceOnUse">
<stop stop-color="#015AA1"/>
<stop offset="0.488163" stop-color="#33428F"/>
<stop offset="1" stop-color="#5A3281"/>
</linearGradient>
<linearGradient id="paint7_linear_7_114" x1="-57.0001" y1="674.911" x2="1884.5" y2="674.911" gradientUnits="userSpaceOnUse">
<stop stop-color="#015AA1"/>
<stop offset="0.488163" stop-color="#33428F"/>
<stop offset="1" stop-color="#5A3281"/>
</linearGradient>
<linearGradient id="paint8_linear_7_114" x1="-57.0001" y1="656.255" x2="1884.5" y2="656.255" gradientUnits="userSpaceOnUse">
<stop stop-color="#015AA1"/>
<stop offset="0.488163" stop-color="#33428F"/>
<stop offset="1" stop-color="#5A3281"/>
</linearGradient>
<linearGradient id="paint9_linear_7_114" x1="-57.0001" y1="637.599" x2="1884.5" y2="637.599" gradientUnits="userSpaceOnUse">
<stop stop-color="#015AA1"/>
<stop offset="0.488163" stop-color="#33428F"/>
<stop offset="1" stop-color="#5A3281"/>
</linearGradient>
<linearGradient id="paint10_linear_7_114" x1="-57.0001" y1="618.942" x2="1884.5" y2="618.942" gradientUnits="userSpaceOnUse">
<stop stop-color="#015AA1"/>
<stop offset="0.488163" stop-color="#33428F"/>
<stop offset="1" stop-color="#5A3281"/>
</linearGradient>
<linearGradient id="paint11_linear_7_114" x1="-57.0001" y1="600.286" x2="1884.5" y2="600.286" gradientUnits="userSpaceOnUse">
<stop stop-color="#015AA1"/>
<stop offset="0.488163" stop-color="#33428F"/>
<stop offset="1" stop-color="#5A3281"/>
</linearGradient>
<linearGradient id="paint12_linear_7_114" x1="-57.0001" y1="581.63" x2="1884.5" y2="581.63" gradientUnits="userSpaceOnUse">
<stop stop-color="#015AA1"/>
<stop offset="0.488163" stop-color="#33428F"/>
<stop offset="1" stop-color="#5A3281"/>
</linearGradient>
<linearGradient id="paint13_linear_7_114" x1="-57.0001" y1="562.973" x2="1884.5" y2="562.973" gradientUnits="userSpaceOnUse">
<stop stop-color="#015AA1"/>
<stop offset="0.488163" stop-color="#33428F"/>
<stop offset="1" stop-color="#5A3281"/>
</linearGradient>
<linearGradient id="paint14_linear_7_114" x1="-57.0001" y1="544.317" x2="1884.5" y2="544.317" gradientUnits="userSpaceOnUse">
<stop stop-color="#015AA1"/>
<stop offset="0.488163" stop-color="#33428F"/>
<stop offset="1" stop-color="#5A3281"/>
</linearGradient>
<linearGradient id="paint15_linear_7_114" x1="-57.0001" y1="525.661" x2="1884.5" y2="525.661" gradientUnits="userSpaceOnUse">
<stop stop-color="#015AA1"/>
<stop offset="0.488163" stop-color="#33428F"/>
<stop offset="1" stop-color="#5A3281"/>
</linearGradient>
<linearGradient id="paint16_linear_7_114" x1="-57.0001" y1="507.004" x2="1884.5" y2="507.004" gradientUnits="userSpaceOnUse">
<stop stop-color="#015AA1"/>
<stop offset="0.488163" stop-color="#33428F"/>
<stop offset="1" stop-color="#5A3281"/>
</linearGradient>
<linearGradient id="paint17_linear_7_114" x1="-57.0001" y1="488.347" x2="1884.5" y2="488.347" gradientUnits="userSpaceOnUse">
<stop stop-color="#015AA1"/>
<stop offset="0.488163" stop-color="#33428F"/>
<stop offset="1" stop-color="#5A3281"/>
</linearGradient>
<linearGradient id="paint18_linear_7_114" x1="-57.0001" y1="469.691" x2="1884.5" y2="469.691" gradientUnits="userSpaceOnUse">
<stop stop-color="#015AA1"/>
<stop offset="0.488163" stop-color="#33428F"/>
<stop offset="1" stop-color="#5A3281"/>
</linearGradient>
<linearGradient id="paint19_linear_7_114" x1="-57.0001" y1="451.035" x2="1884.5" y2="451.035" gradientUnits="userSpaceOnUse">
<stop stop-color="#015AA1"/>
<stop offset="0.488163" stop-color="#33428F"/>
<stop offset="1" stop-color="#5A3281"/>
</linearGradient>
<linearGradient id="paint20_linear_7_114" x1="-57.0001" y1="432.379" x2="1884.5" y2="432.379" gradientUnits="userSpaceOnUse">
<stop stop-color="#015AA1"/>
<stop offset="0.488163" stop-color="#33428F"/>
<stop offset="1" stop-color="#5A3281"/>
</linearGradient>
<linearGradient id="paint21_linear_7_114" x1="-57.0001" y1="413.722" x2="1884.5" y2="413.722" gradientUnits="userSpaceOnUse">
<stop stop-color="#015AA1"/>
<stop offset="0.488163" stop-color="#33428F"/>
<stop offset="1" stop-color="#5A3281"/>
</linearGradient>
<linearGradient id="paint22_linear_7_114" x1="-57.0001" y1="395.065" x2="1884.5" y2="395.065" gradientUnits="userSpaceOnUse">
<stop stop-color="#015AA1"/>
<stop offset="0.488163" stop-color="#33428F"/>
<stop offset="1" stop-color="#5A3281"/>
</linearGradient>
<linearGradient id="paint23_linear_7_114" x1="-57.0001" y1="376.409" x2="1884.5" y2="376.409" gradientUnits="userSpaceOnUse">
<stop stop-color="#015AA1"/>
<stop offset="0.488163" stop-color="#33428F"/>
<stop offset="1" stop-color="#5A3281"/>
</linearGradient>
<linearGradient id="paint24_linear_7_114" x1="-57.0001" y1="357.753" x2="1884.5" y2="357.753" gradientUnits="userSpaceOnUse">
<stop stop-color="#015AA1"/>
<stop offset="0.488163" stop-color="#33428F"/>
<stop offset="1" stop-color="#5A3281"/>
</linearGradient>
<linearGradient id="paint25_linear_7_114" x1="-57.0001" y1="339.096" x2="1884.5" y2="339.096" gradientUnits="userSpaceOnUse">
<stop stop-color="#015AA1"/>
<stop offset="0.488163" stop-color="#33428F"/>
<stop offset="1" stop-color="#5A3281"/>
</linearGradient>
<linearGradient id="paint26_linear_7_114" x1="-57.0001" y1="320.44" x2="1884.5" y2="320.44" gradientUnits="userSpaceOnUse">
<stop stop-color="#015AA1"/>
<stop offset="0.488163" stop-color="#33428F"/>
<stop offset="1" stop-color="#5A3281"/>
</linearGradient>
<linearGradient id="paint27_linear_7_114" x1="-57.0001" y1="301.784" x2="1884.5" y2="301.784" gradientUnits="userSpaceOnUse">
<stop stop-color="#015AA1"/>
<stop offset="0.488163" stop-color="#33428F"/>
<stop offset="1" stop-color="#5A3281"/>
</linearGradient>
<linearGradient id="paint28_linear_7_114" x1="-57.0001" y1="283.127" x2="1884.5" y2="283.127" gradientUnits="userSpaceOnUse">
<stop stop-color="#015AA1"/>
<stop offset="0.488163" stop-color="#33428F"/>
<stop offset="1" stop-color="#5A3281"/>
</linearGradient>
<linearGradient id="paint29_linear_7_114" x1="-57.0001" y1="264.471" x2="1884.5" y2="264.471" gradientUnits="userSpaceOnUse">
<stop stop-color="#015AA1"/>
<stop offset="0.488163" stop-color="#33428F"/>
<stop offset="1" stop-color="#5A3281"/>
</linearGradient>
<linearGradient id="paint30_linear_7_114" x1="-57.0001" y1="245.814" x2="1884.5" y2="245.814" gradientUnits="userSpaceOnUse">
<stop stop-color="#015AA1"/>
<stop offset="0.488163" stop-color="#33428F"/>
<stop offset="1" stop-color="#5A3281"/>
</linearGradient>
<linearGradient id="paint31_linear_7_114" x1="-57.0001" y1="227.158" x2="1884.5" y2="227.158" gradientUnits="userSpaceOnUse">
<stop stop-color="#015AA1"/>
<stop offset="0.488163" stop-color="#33428F"/>
<stop offset="1" stop-color="#5A3281"/>
</linearGradient>
</defs>
</svg>
