<svg width="46" height="46" viewBox="0 0 46 46" fill="none" xmlns="http://www.w3.org/2000/svg">
<path fill-rule="evenodd" clip-rule="evenodd" d="M4 2C4 3.10457 3.10457 4 2 4C0.895431 4 0 3.10457 0 2C0 0.895431 0.895431 0 2 0C3.10457 0 4 0.895431 4 2ZM18 2C18 3.10457 17.1046 4 16 4C14.8954 4 14 3.10457 14 2C14 0.895431 14.8954 0 16 0C17.1046 0 18 0.895431 18 2ZM32 2C32 3.10457 31.1046 4 30 4C28.8954 4 28 3.10457 28 2C28 0.895431 28.8954 0 30 0C31.1046 0 32 0.895431 32 2ZM44 4C45.1046 4 46 3.10457 46 2C46 0.895431 45.1046 0 44 0C42.8954 0 42 0.895431 42 2C42 3.10457 42.8954 4 44 4ZM44 18C45.1046 18 46 17.1046 46 16C46 14.8954 45.1046 14 44 14C42.8954 14 42 14.8954 42 16C42 17.1046 42.8954 18 44 18ZM46 30C46 31.1046 45.1046 32 44 32C42.8954 32 42 31.1046 42 30C42 28.8954 42.8954 28 44 28C45.1046 28 46 28.8954 46 30ZM44 46C45.1046 46 46 45.1046 46 44C46 42.8954 45.1046 42 44 42C42.8954 42 42 42.8954 42 44C42 45.1046 42.8954 46 44 46ZM30 18C31.1046 18 32 17.1046 32 16C32 14.8954 31.1046 14 30 14C28.8954 14 28 14.8954 28 16C28 17.1046 28.8954 18 30 18ZM32 30C32 31.1046 31.1046 32 30 32C28.8954 32 28 31.1046 28 30C28 28.8954 28.8954 28 30 28C31.1046 28 32 28.8954 32 30ZM30 46C31.1046 46 32 45.1046 32 44C32 42.8954 31.1046 42 30 42C28.8954 42 28 42.8954 28 44C28 45.1046 28.8954 46 30 46ZM16 18C17.1046 18 18 17.1046 18 16C18 14.8954 17.1046 14 16 14C14.8954 14 14 14.8954 14 16C14 17.1046 14.8954 18 16 18ZM18 30C18 31.1046 17.1046 32 16 32C14.8954 32 14 31.1046 14 30C14 28.8954 14.8954 28 16 28C17.1046 28 18 28.8954 18 30ZM16 46C17.1046 46 18 45.1046 18 44C18 42.8954 17.1046 42 16 42C14.8954 42 14 42.8954 14 44C14 45.1046 14.8954 46 16 46ZM2 18C3.10457 18 4 17.1046 4 16C4 14.8954 3.10457 14 2 14C0.895431 14 0 14.8954 0 16C0 17.1046 0.895431 18 2 18ZM4 30C4 31.1046 3.10457 32 2 32C0.895431 32 0 31.1046 0 30C0 28.8954 0.895431 28 2 28C3.10457 28 4 28.8954 4 30ZM2 46C3.10457 46 4 45.1046 4 44C4 42.8954 3.10457 42 2 42C0.895431 42 0 42.8954 0 44C0 45.1046 0.895431 46 2 46Z" fill="url(#paint0_linear_7_95)"/>
<defs>
<linearGradient id="paint0_linear_7_95" x1="2.2044e-07" y1="29" x2="46" y2="29" gradientUnits="userSpaceOnUse">
<stop stop-color="#015AA1"/>
<stop offset="0.488163" stop-color="#33428F"/>
<stop offset="1" stop-color="#5A3281"/>
</linearGradient>
</defs>
</svg>
